<svg width="1500" height="700" viewBox="0 0 1500 700" fill="none" xmlns="http://www.w3.org/2000/svg">
<path fill-rule="evenodd" clip-rule="evenodd" d="M649.933 0C677.548 0 699.933 22.3858 699.933 50V300H799.933V50C799.933 22.3858 822.319 0 849.933 0C877.548 0 899.933 22.3858 899.933 50V300H999.933V50.2C999.933 8.91215 1047.07 -14.6489 1080.09 10.12L1479.83 309.92C1506.55 329.961 1506.55 370.041 1479.83 390.08L1080.09 689.88C1047.05 714.663 999.933 691.065 999.933 649.8V400H899.933V650C899.933 677.614 877.548 700 849.933 700C822.319 700 799.933 677.614 799.933 650V400H699.933V650C699.933 677.614 677.548 700 649.933 700C622.319 700 599.933 677.614 599.933 650V400H499.933V649.8C499.933 691.065 452.817 714.663 419.773 689.88L20.04 390.08C-6.67866 370.041 -6.68134 329.961 20.04 309.92L419.773 10.12C452.799 -14.6489 499.933 8.91215 499.933 50.2V300H599.933V50C599.933 22.3858 622.319 0 649.933 0ZM399.933 300V150L199.933 300H399.933ZM199.933 400L399.933 550V400H199.933ZM1099.93 550V400H1299.93L1099.93 550ZM1099.93 300H1299.93L1099.93 150V300Z" fill="#f1f0f7"/>
</svg>
